<svg xmlns="http://www.w3.org/2000/svg" width="132.8" height="204.9" viewBox="164.8 440.2 132.8 204.9"><defs><linearGradient id="linear-pattern-0" gradientUnits="userSpaceOnUse" x1="284" y1="643.3" x2="284" y2="0" gradientTransform="matrix(1, 0, 0, -1, 11.3, 654.8)"><stop offset="0" stop-color="#669900" stop-opacity="1"/><stop offset="0.02" stop-color="#669900" stop-opacity="1"/><stop offset="0.03" stop-color="#679801" stop-opacity="1"/><stop offset="0.05" stop-color="#689702" stop-opacity="1"/><stop offset="0.06" stop-color="#699603" stop-opacity="1"/><stop offset="0.08" stop-color="#6A9504" stop-opacity="1"/><stop offset="0.09" stop-color="#6A9504" stop-opacity="1"/><stop offset="0.11" stop-color="#6B9405" stop-opacity="1"/><stop offset="0.12" stop-color="#6C9306" stop-opacity="1"/><stop offset="0.14" stop-color="#6D9207" stop-opacity="1"/><stop offset="0.16" stop-color="#6E9108" stop-opacity="1"/><stop offset="0.17" stop-color="#6E9108" stop-opacity="1"/><stop offset="0.19" stop-color="#6F9009" stop-opacity="1"/><stop offset="0.2" stop-color="#708F0A" stop-opacity="1"/><stop offset="0.22" stop-color="#718E0B" stop-opacity="1"/><stop offset="0.23" stop-color="#728D0C" stop-opacity="1"/><stop offset="0.25" stop-color="#728D0C" stop-opacity="1"/><stop offset="0.27" stop-color="#738C0D" stop-opacity="1"/><stop offset="0.28" stop-color="#748B0E" stop-opacity="1"/><stop offset="0.3" stop-color="#758A0F" stop-opacity="1"/><stop offset="0.31" stop-color="#768910" stop-opacity="1"/><stop offset="0.33" stop-color="#768910" stop-opacity="1"/><stop offset="0.34" stop-color="#778811" stop-opacity="1"/><stop offset="0.36" stop-color="#788712" stop-opacity="1"/><stop offset="0.38" stop-color="#798613" stop-opacity="1"/><stop offset="0.39" stop-color="#7A8514" stop-opacity="1"/><stop offset="0.41" stop-color="#7A8514" stop-opacity="1"/><stop offset="0.42" stop-color="#7B8415" stop-opacity="1"/><stop offset="0.44" stop-color="#7C8316" stop-opacity="1"/><stop offset="0.45" stop-color="#7D8217" stop-opacity="1"/><stop offset="0.47" stop-color="#7E8118" stop-opacity="1"/><stop offset="0.48" stop-color="#7E8118" stop-opacity="1"/><stop offset="0.5" stop-color="#7F8019" stop-opacity="1"/><stop offset="0.52" stop-color="#807F1A" stop-opacity="1"/><stop offset="0.53" stop-color="#817E1B" stop-opacity="1"/><stop offset="0.55" stop-color="#827D1C" stop-opacity="1"/><stop offset="0.56" stop-color="#827D1C" stop-opacity="1"/><stop offset="0.58" stop-color="#837C1D" stop-opacity="1"/><stop offset="0.59" stop-color="#847B1E" stop-opacity="1"/><stop offset="0.61" stop-color="#857A1F" stop-opacity="1"/><stop offset="0.62" stop-color="#857A1F" stop-opacity="1"/><stop offset="0.64" stop-color="#867920" stop-opacity="1"/><stop offset="0.66" stop-color="#877821" stop-opacity="1"/><stop offset="0.67" stop-color="#887722" stop-opacity="1"/><stop offset="0.69" stop-color="#897623" stop-opacity="1"/><stop offset="0.7" stop-color="#897623" stop-opacity="1"/><stop offset="0.72" stop-color="#8A7524" stop-opacity="1"/><stop offset="0.73" stop-color="#8B7425" stop-opacity="1"/><stop offset="0.75" stop-color="#8C7326" stop-opacity="1"/><stop offset="0.77" stop-color="#8D7227" stop-opacity="1"/><stop offset="0.78" stop-color="#8D7227" stop-opacity="1"/><stop offset="0.8" stop-color="#8E7128" stop-opacity="1"/><stop offset="0.81" stop-color="#8F7029" stop-opacity="1"/><stop offset="0.83" stop-color="#906F2A" stop-opacity="1"/><stop offset="0.84" stop-color="#916E2B" stop-opacity="1"/><stop offset="0.86" stop-color="#916E2B" stop-opacity="1"/><stop offset="0.88" stop-color="#926D2C" stop-opacity="1"/><stop offset="0.89" stop-color="#936C2D" stop-opacity="1"/><stop offset="0.91" stop-color="#946B2E" stop-opacity="1"/><stop offset="0.92" stop-color="#956A2F" stop-opacity="1"/><stop offset="0.94" stop-color="#956A2F" stop-opacity="1"/><stop offset="0.95" stop-color="#966930" stop-opacity="1"/><stop offset="0.97" stop-color="#976831" stop-opacity="1"/><stop offset="0.98" stop-color="#986732" stop-opacity="1"/><stop offset="1" stop-color="#996633" stop-opacity="1"/>
</linearGradient></defs><path fill-rule="nonzero" fill="url(#linear-pattern-0)" d="M 11.3 654.8 L 11.3 11.5 L 578.3 11.5 L 578.3 654.8 Z M 11.3 654.8 "/><path fill-rule="evenodd" fill="#461900" d="M 206.8 505.3 C 200.7 505.3 195.7 507.3 195.7 509.9 L 195.7 537.6 C 195.7 540.1 200.7 542.2 206.8 542.2 C 212.8 542.2 217.8 540.1 217.8 537.6 L 217.8 509.9 C 217.8 507.3 212.8 505.3 206.8 505.3 Z M 195.7 505.3 Z M 217.8 542.2 Z M 217.8 542.2 "/><path fill="none" stroke-width="2.83" stroke-linecap="butt" stroke-linejoin="round" stroke="#801900" d="M 206.8 336.7 C 200.7 336.7 195.7 334.7 195.7 332.1 L 195.7 304.4 C 195.7 301.9 200.7 299.8 206.8 299.8 C 212.8 299.8 217.8 301.9 217.8 304.4 L 217.8 332.1 C 217.8 334.7 212.8 336.7 206.8 336.7 Z M 206.8 336.7 " transform="matrix(1, 0, 0, -1, 0, 842)"/><path fill-rule="evenodd" fill="#90583A" d="M 206.8 505.3 C 200.7 505.3 195.7 507.3 195.7 509.9 C 195.7 512.4 200.7 514.5 206.8 514.5 C 212.8 514.5 217.8 512.4 217.8 509.9 C 217.8 507.3 212.8 505.3 206.8 505.3 Z M 195.7 505.3 Z M 217.8 542.2 Z M 217.8 542.2 "/><path fill="none" stroke-width="2.83" stroke-linecap="butt" stroke-linejoin="round" stroke="#801900" d="M 206.8 336.7 C 200.7 336.7 195.7 334.7 195.7 332.1 C 195.7 329.6 200.7 327.5 206.8 327.5 C 212.8 327.5 217.8 329.6 217.8 332.1 C 217.8 334.7 212.8 336.7 206.8 336.7 Z M 206.8 336.7 " transform="matrix(1, 0, 0, -1, 0, 842)"/><path fill-rule="evenodd" fill="#461900" d="M 224 564.3 C 218 564.3 212.9 566.4 212.9 568.9 L 212.9 596.6 C 212.9 599.1 218 601.2 224 601.2 C 230 601.2 235.1 599.1 235.1 596.6 L 235.1 568.9 C 235.1 566.4 230 564.3 224 564.3 Z M 212.9 564.3 Z M 235.1 601.3 Z M 235.1 601.3 "/><path fill="none" stroke-width="2.83" stroke-linecap="butt" stroke-linejoin="round" stroke="#801900" d="M 224 277.7 C 218 277.7 212.9 275.6 212.9 273.1 L 212.9 245.4 C 212.9 242.9 218 240.8 224 240.8 C 230 240.8 235.1 242.9 235.1 245.4 L 235.1 273.1 C 235.1 275.6 230 277.7 224 277.7 Z M 224 277.7 " transform="matrix(1, 0, 0, -1, 0, 842)"/><path fill-rule="evenodd" fill="#90583A" d="M 224 564.3 C 218 564.3 212.9 566.4 212.9 568.9 C 212.9 571.4 218 573.5 224 573.5 C 230 573.5 235.1 571.4 235.1 568.9 C 235.1 566.4 230 564.3 224 564.3 Z M 212.9 564.3 Z M 235.1 601.3 Z M 235.1 601.3 "/><path fill="none" stroke-width="2.83" stroke-linecap="butt" stroke-linejoin="round" stroke="#801900" d="M 224 277.7 C 218 277.7 212.9 275.6 212.9 273.1 C 212.9 270.6 218 268.5 224 268.5 C 230 268.5 235.1 270.6 235.1 273.1 C 235.1 275.6 230 277.7 224 277.7 Z M 224 277.7 " transform="matrix(1, 0, 0, -1, 0, 842)"/><path fill-rule="evenodd" fill="#461900" d="M 267 584 C 258.9 584 252.3 586.1 252.3 588.6 L 252.3 616.3 C 252.3 618.8 258.9 620.9 267 620.9 C 275.1 620.9 281.8 618.8 281.8 616.3 L 281.8 588.6 C 281.8 586.1 275.1 584 267 584 Z M 252.3 584 Z M 281.8 620.9 Z M 281.8 620.9 "/><path fill="none" stroke-width="2.83" stroke-linecap="butt" stroke-linejoin="round" stroke="#801900" d="M 267 258 C 258.9 258 252.3 255.9 252.3 253.4 L 252.3 225.7 C 252.3 223.2 258.9 221.1 267 221.1 C 275.1 221.1 281.8 223.2 281.8 225.7 L 281.8 253.4 C 281.8 255.9 275.1 258 267 258 Z M 267 258 " transform="matrix(1, 0, 0, -1, 0, 842)"/><path fill-rule="evenodd" fill="#90583A" d="M 267 584 C 258.9 584 252.3 586.1 252.3 588.6 C 252.3 591.1 258.9 593.2 267 593.2 C 275.1 593.2 281.8 591.1 281.8 588.6 C 281.8 586.1 275.1 584 267 584 Z M 252.3 584 Z M 281.8 620.9 Z M 281.8 620.9 "/><path fill="none" stroke-width="2.83" stroke-linecap="butt" stroke-linejoin="round" stroke="#801900" d="M 267 258 C 258.9 258 252.3 255.9 252.3 253.4 C 252.3 250.9 258.9 248.8 267 248.8 C 275.1 248.8 281.8 250.9 281.8 253.4 C 281.8 255.9 275.1 258 267 258 Z M 267 258 " transform="matrix(1, 0, 0, -1, 0, 842)"/><path fill-rule="evenodd" fill="#333333" d="M 231.4 618.4 C 240.5 618.4 247.4 620.6 247.4 623.3 C 247.4 626.1 240.5 628.2 231.4 628.2 C 222.3 628.2 215.4 626.1 215.4 623.3 C 215.4 620.6 222.3 618.4 231.4 618.4 Z M 215.4 618.4 Z M 247.4 628.3 Z M 247.4 628.3 "/><path fill="none" stroke-width="2.83" stroke-linecap="butt" stroke-linejoin="round" stroke="#999966" d="M 231.4 223.6 C 240.5 223.6 247.4 221.4 247.4 218.7 C 247.4 215.9 240.5 213.8 231.4 213.8 C 222.3 213.8 215.4 215.9 215.4 218.7 C 215.4 221.4 222.3 223.6 231.4 223.6 Z M 231.4 223.6 " transform="matrix(1, 0, 0, -1, 0, 842)"/></svg>
