<svg xmlns="http://www.w3.org/2000/svg" width="132.8" height="204.9" viewBox="435.3 440.2 132.8 204.9"><defs><linearGradient id="linear-pattern-0" gradientUnits="userSpaceOnUse" x1="285" y1="739.7" x2="285" y2="0" gradientTransform="matrix(1, 0, 0, -1, 11.3, 751.2)"><stop offset="0" stop-color="#66CC00" stop-opacity="1"/><stop offset="0.01" stop-color="#66CB00" stop-opacity="1"/><stop offset="0.02" stop-color="#65CB00" stop-opacity="1"/><stop offset="0.02" stop-color="#65CA00" stop-opacity="1"/><stop offset="0.03" stop-color="#65C900" stop-opacity="1"/><stop offset="0.04" stop-color="#64C800" stop-opacity="1"/><stop offset="0.05" stop-color="#64C700" stop-opacity="1"/><stop offset="0.05" stop-color="#63C700" stop-opacity="1"/><stop offset="0.06" stop-color="#63C600" stop-opacity="1"/><stop offset="0.07" stop-color="#63C500" stop-opacity="1"/><stop offset="0.08" stop-color="#62C400" stop-opacity="1"/><stop offset="0.09" stop-color="#62C300" stop-opacity="1"/><stop offset="0.09" stop-color="#61C300" stop-opacity="1"/><stop offset="0.1" stop-color="#61C200" stop-opacity="1"/><stop offset="0.11" stop-color="#61C100" stop-opacity="1"/><stop offset="0.12" stop-color="#60C000" stop-opacity="1"/><stop offset="0.12" stop-color="#60BF00" stop-opacity="1"/><stop offset="0.13" stop-color="#5FBF00" stop-opacity="1"/><stop offset="0.14" stop-color="#5FBE00" stop-opacity="1"/><stop offset="0.15" stop-color="#5FBD00" stop-opacity="1"/><stop offset="0.16" stop-color="#5EBC00" stop-opacity="1"/><stop offset="0.16" stop-color="#5EBC00" stop-opacity="1"/><stop offset="0.17" stop-color="#5DBB00" stop-opacity="1"/><stop offset="0.18" stop-color="#5DBA00" stop-opacity="1"/><stop offset="0.19" stop-color="#5DB900" stop-opacity="1"/><stop offset="0.2" stop-color="#5CB800" stop-opacity="1"/><stop offset="0.2" stop-color="#5CB800" stop-opacity="1"/><stop offset="0.21" stop-color="#5BB700" stop-opacity="1"/><stop offset="0.22" stop-color="#5BB600" stop-opacity="1"/><stop offset="0.23" stop-color="#5BB500" stop-opacity="1"/><stop offset="0.23" stop-color="#5AB400" stop-opacity="1"/><stop offset="0.24" stop-color="#5AB400" stop-opacity="1"/><stop offset="0.25" stop-color="#59B300" stop-opacity="1"/><stop offset="0.26" stop-color="#59B200" stop-opacity="1"/><stop offset="0.27" stop-color="#59B100" stop-opacity="1"/><stop offset="0.27" stop-color="#58B000" stop-opacity="1"/><stop offset="0.28" stop-color="#58B000" stop-opacity="1"/><stop offset="0.29" stop-color="#57AF00" stop-opacity="1"/><stop offset="0.3" stop-color="#57AE00" stop-opacity="1"/><stop offset="0.3" stop-color="#57AD00" stop-opacity="1"/><stop offset="0.31" stop-color="#56AC00" stop-opacity="1"/><stop offset="0.32" stop-color="#56AC00" stop-opacity="1"/><stop offset="0.33" stop-color="#55AB00" stop-opacity="1"/><stop offset="0.34" stop-color="#55AA00" stop-opacity="1"/><stop offset="0.34" stop-color="#55A900" stop-opacity="1"/><stop offset="0.35" stop-color="#54A800" stop-opacity="1"/><stop offset="0.36" stop-color="#54A800" stop-opacity="1"/><stop offset="0.37" stop-color="#53A700" stop-opacity="1"/><stop offset="0.38" stop-color="#53A600" stop-opacity="1"/><stop offset="0.38" stop-color="#53A500" stop-opacity="1"/><stop offset="0.39" stop-color="#52A400" stop-opacity="1"/><stop offset="0.4" stop-color="#52A400" stop-opacity="1"/><stop offset="0.41" stop-color="#51A300" stop-opacity="1"/><stop offset="0.41" stop-color="#51A200" stop-opacity="1"/><stop offset="0.42" stop-color="#51A100" stop-opacity="1"/><stop offset="0.43" stop-color="#50A000" stop-opacity="1"/><stop offset="0.44" stop-color="#50A000" stop-opacity="1"/><stop offset="0.45" stop-color="#4F9F00" stop-opacity="1"/><stop offset="0.45" stop-color="#4F9E00" stop-opacity="1"/><stop offset="0.46" stop-color="#4F9D00" stop-opacity="1"/><stop offset="0.47" stop-color="#4E9C00" stop-opacity="1"/><stop offset="0.48" stop-color="#4E9C00" stop-opacity="1"/><stop offset="0.48" stop-color="#4D9B00" stop-opacity="1"/><stop offset="0.49" stop-color="#4D9A00" stop-opacity="1"/><stop offset="0.5" stop-color="#4D9900" stop-opacity="1"/><stop offset="0.51" stop-color="#4C9900" stop-opacity="1"/><stop offset="0.52" stop-color="#4C9800" stop-opacity="1"/><stop offset="0.52" stop-color="#4B9700" stop-opacity="1"/><stop offset="0.53" stop-color="#4B9600" stop-opacity="1"/><stop offset="0.54" stop-color="#4B9500" stop-opacity="1"/><stop offset="0.55" stop-color="#4A9500" stop-opacity="1"/><stop offset="0.55" stop-color="#4A9400" stop-opacity="1"/><stop offset="0.56" stop-color="#499300" stop-opacity="1"/><stop offset="0.57" stop-color="#499200" stop-opacity="1"/><stop offset="0.58" stop-color="#499100" stop-opacity="1"/><stop offset="0.59" stop-color="#489100" stop-opacity="1"/><stop offset="0.59" stop-color="#489000" stop-opacity="1"/><stop offset="0.6" stop-color="#478F00" stop-opacity="1"/><stop offset="0.61" stop-color="#478E00" stop-opacity="1"/><stop offset="0.62" stop-color="#478D00" stop-opacity="1"/><stop offset="0.62" stop-color="#468D00" stop-opacity="1"/><stop offset="0.63" stop-color="#468C00" stop-opacity="1"/><stop offset="0.64" stop-color="#458B00" stop-opacity="1"/><stop offset="0.65" stop-color="#458A00" stop-opacity="1"/><stop offset="0.66" stop-color="#458900" stop-opacity="1"/><stop offset="0.66" stop-color="#448900" stop-opacity="1"/><stop offset="0.67" stop-color="#448800" stop-opacity="1"/><stop offset="0.68" stop-color="#448700" stop-opacity="1"/><stop offset="0.69" stop-color="#438600" stop-opacity="1"/><stop offset="0.7" stop-color="#438500" stop-opacity="1"/><stop offset="0.7" stop-color="#428500" stop-opacity="1"/><stop offset="0.71" stop-color="#428400" stop-opacity="1"/><stop offset="0.72" stop-color="#428300" stop-opacity="1"/><stop offset="0.73" stop-color="#418200" stop-opacity="1"/><stop offset="0.73" stop-color="#418100" stop-opacity="1"/><stop offset="0.74" stop-color="#408100" stop-opacity="1"/><stop offset="0.75" stop-color="#408000" stop-opacity="1"/><stop offset="0.76" stop-color="#407F00" stop-opacity="1"/><stop offset="0.77" stop-color="#3F7E00" stop-opacity="1"/><stop offset="0.77" stop-color="#3F7D00" stop-opacity="1"/><stop offset="0.78" stop-color="#3E7D00" stop-opacity="1"/><stop offset="0.79" stop-color="#3E7C00" stop-opacity="1"/><stop offset="0.8" stop-color="#3E7B00" stop-opacity="1"/><stop offset="0.8" stop-color="#3D7A00" stop-opacity="1"/><stop offset="0.81" stop-color="#3D7900" stop-opacity="1"/><stop offset="0.82" stop-color="#3C7900" stop-opacity="1"/><stop offset="0.83" stop-color="#3C7800" stop-opacity="1"/><stop offset="0.84" stop-color="#3C7700" stop-opacity="1"/><stop offset="0.84" stop-color="#3B7600" stop-opacity="1"/><stop offset="0.85" stop-color="#3B7600" stop-opacity="1"/><stop offset="0.86" stop-color="#3A7500" stop-opacity="1"/><stop offset="0.87" stop-color="#3A7400" stop-opacity="1"/><stop offset="0.88" stop-color="#3A7300" stop-opacity="1"/><stop offset="0.88" stop-color="#397200" stop-opacity="1"/><stop offset="0.89" stop-color="#397200" stop-opacity="1"/><stop offset="0.9" stop-color="#387100" stop-opacity="1"/><stop offset="0.91" stop-color="#387000" stop-opacity="1"/><stop offset="0.91" stop-color="#386F00" stop-opacity="1"/><stop offset="0.92" stop-color="#376E00" stop-opacity="1"/><stop offset="0.93" stop-color="#376E00" stop-opacity="1"/><stop offset="0.94" stop-color="#366D00" stop-opacity="1"/><stop offset="0.95" stop-color="#366C00" stop-opacity="1"/><stop offset="0.95" stop-color="#366B00" stop-opacity="1"/><stop offset="0.96" stop-color="#356A00" stop-opacity="1"/><stop offset="0.97" stop-color="#356A00" stop-opacity="1"/><stop offset="0.98" stop-color="#346900" stop-opacity="1"/><stop offset="0.98" stop-color="#346800" stop-opacity="1"/><stop offset="0.99" stop-color="#346700" stop-opacity="1"/><stop offset="1" stop-color="#336600" stop-opacity="1"/>
</linearGradient></defs><path fill-rule="nonzero" fill="url(#linear-pattern-0)" d="M 11.3 751.2 L 11.3 11.5 L 581 11.5 L 581 751.2 Z M 11.3 751.2 "/><path fill-rule="evenodd" fill="#006633" d="M 458.2 594.4 C 458.2 587.7 447.8 581 437.4 581 C 427 581 416.6 587.7 416.6 594.4 L 416.6 607.7 L 458.2 607.7 Z M 458.2 607.7 Z M 416.6 581 Z M 416.6 581 "/><path fill="none" stroke-width="5.66" stroke-linecap="butt" stroke-linejoin="round" stroke="#00CC33" d="M 458.2 247.6 C 458.2 254.3 447.8 261 437.4 261 C 427 261 416.6 254.3 416.6 247.6 L 416.6 234.3 L 458.2 234.3 Z M 458.2 247.6 " transform="matrix(1, 0, 0, -1, 0, 842)"/><path fill-rule="evenodd" fill="#003300" d="M 397.4 608.5 L 397.4 606.6 L 397.6 604.8 L 397.8 603 L 398.2 601.2 L 398.6 599.4 L 399.2 597.6 L 399.8 595.8 L 400.5 594.1 L 401.4 592.5 L 402.3 590.8 L 403.3 589.2 L 404.4 587.7 L 405.6 586.2 L 406.9 584.8 L 408.2 583.4 L 409.6 582.1 L 411.1 580.9 L 412.6 579.7 L 414.2 578.6 L 415.9 577.6 L 417.6 576.7 L 419.4 575.8 L 421.2 575.1 L 423 574.4 L 424.9 573.8 L 426.8 573.3 L 428.8 572.9 L 430.8 572.5 L 432.7 572.3 L 434.7 572.2 L 436.7 572.1 L 438.7 572.2 L 440.7 572.3 L 442.7 572.5 L 444.6 572.9 L 446.6 573.3 L 448.5 573.8 L 450.4 574.4 L 452.2 575.1 L 454 575.8 L 455.8 576.7 L 457.5 577.6 L 459.2 578.6 L 460.8 579.7 L 462.3 580.9 L 463.8 582.1 L 465.2 583.4 L 466.6 584.8 L 467.8 586.2 L 469 587.7 L 470.1 589.2 L 471.1 590.8 L 472 592.5 L 472.9 594.1 L 473.6 595.8 L 474.2 597.6 L 474.8 599.4 L 475.3 601.2 L 475.6 603 L 475.9 604.8 L 476 606.6 L 476.1 608.5 L 456.4 608.5 L 456.3 607.5 L 456.3 606.6 L 456.2 605.7 L 456 604.8 L 455.8 603.9 L 455.5 603 L 455.2 602.2 L 454.8 601.3 L 454.4 600.5 L 453.9 599.6 L 453.4 598.8 L 452.9 598.1 L 452.3 597.3 L 450.3 595.3 L 449.5 594.7 L 448.8 594.1 L 447.9 593.5 L 447.1 593 L 446.3 592.6 L 445.4 592.2 L 444.5 591.8 L 443.5 591.4 L 442.6 591.1 L 441.6 590.9 L 440.7 590.7 L 439.7 590.5 L 438.7 590.4 L 437.7 590.3 L 435.7 590.3 L 434.7 590.4 L 433.7 590.5 L 432.7 590.7 L 431.8 590.9 L 430.8 591.1 L 429.9 591.4 L 428.9 591.8 L 428 592.2 L 427.2 592.6 L 426.3 593 L 425.5 593.5 L 424.7 594.1 L 423.9 594.7 L 423.2 595.3 L 422.4 596 L 421.8 596.6 L 421.1 597.3 L 420.5 598.1 L 420 598.8 L 419.5 599.6 L 419 600.5 L 418.6 601.3 L 418.3 602.2 L 417.9 603 L 417.7 603.9 L 417.4 604.8 L 417.3 605.7 L 417.1 606.6 L 417.1 607.5 L 417 608.5 Z M 476.1 572.1 Z M 397.3 644.9 Z M 397.3 644.9 "/><path fill="none" stroke-width="5.66" stroke-linecap="butt" stroke-linejoin="round" stroke="#00CC33" d="M 397.4 233.5 L 397.4 235.4 L 397.6 237.2 L 397.8 239 L 398.2 240.8 L 398.6 242.6 L 399.2 244.4 L 399.8 246.2 L 400.5 247.9 L 401.4 249.5 L 402.3 251.2 L 403.3 252.8 L 404.4 254.3 L 405.6 255.8 L 406.9 257.2 L 408.2 258.6 L 409.6 259.9 L 411.1 261.1 L 412.6 262.3 L 414.2 263.4 L 415.9 264.4 L 417.6 265.3 L 419.4 266.2 L 421.2 266.9 L 423 267.6 L 424.9 268.2 L 426.8 268.7 L 428.8 269.1 L 430.8 269.5 L 432.7 269.7 L 434.7 269.8 L 436.7 269.9 L 438.7 269.8 L 440.7 269.7 L 442.7 269.5 L 444.6 269.1 L 446.6 268.7 L 448.5 268.2 L 450.4 267.6 L 452.2 266.9 L 454 266.2 L 455.8 265.3 L 457.5 264.4 L 459.2 263.4 L 460.8 262.3 L 462.3 261.1 L 463.8 259.9 L 465.2 258.6 L 466.6 257.2 L 467.8 255.8 L 469 254.3 L 470.1 252.8 L 471.1 251.2 L 472 249.5 L 472.9 247.9 L 473.6 246.2 L 474.2 244.4 L 474.8 242.6 L 475.3 240.8 L 475.6 239 L 475.9 237.2 L 476 235.4 L 476.1 233.5 L 456.4 233.5 L 456.3 234.5 L 456.3 235.4 L 456.2 236.3 L 456 237.2 L 455.8 238.1 L 455.5 239 L 455.2 239.8 L 454.8 240.7 L 454.4 241.5 L 453.9 242.4 L 453.4 243.2 L 452.9 243.9 L 452.3 244.7 L 450.3 246.7 L 449.5 247.3 L 448.8 247.9 L 447.9 248.5 L 447.1 249 L 446.3 249.4 L 445.4 249.8 L 444.5 250.2 L 443.5 250.6 L 442.6 250.9 L 441.6 251.1 L 440.7 251.3 L 439.7 251.5 L 438.7 251.6 L 437.7 251.7 L 435.7 251.7 L 434.7 251.6 L 433.7 251.5 L 432.7 251.3 L 431.8 251.1 L 430.8 250.9 L 429.9 250.6 L 428.9 250.2 L 428 249.8 L 427.2 249.4 L 426.3 249 L 425.5 248.5 L 424.7 247.9 L 423.9 247.3 L 423.2 246.7 L 422.4 246 L 421.8 245.4 L 421.1 244.7 L 420.5 243.9 L 420 243.2 L 419.5 242.4 L 419 241.5 L 418.6 240.7 L 418.3 239.8 L 417.9 239 L 417.7 238.1 L 417.4 237.2 L 417.3 236.3 L 417.1 235.4 L 417.1 234.5 L 417 233.5 Z M 397.4 233.5 " transform="matrix(1, 0, 0, -1, 0, 842)"/><path fill-rule="evenodd" fill="#00CC00" d="M 502.8 405.9 C 523.7 405.9 539.7 421.9 539.7 442.8 C 539.7 463.6 523.7 479.6 502.8 479.6 C 481.9 479.6 465.9 463.6 465.9 442.8 C 465.9 421.9 481.9 405.9 502.8 405.9 Z M 465.9 405.9 Z M 539.7 479.7 Z M 539.7 479.7 "/><path fill="none" stroke-width="5.66" stroke-linecap="butt" stroke-linejoin="round" stroke="#66FF00" d="M 502.8 436.1 C 523.7 436.1 539.7 420.1 539.7 399.2 C 539.7 378.4 523.7 362.4 502.8 362.4 C 481.9 362.4 465.9 378.4 465.9 399.2 C 465.9 420.1 481.9 436.1 502.8 436.1 Z M 502.8 436.1 " transform="matrix(1, 0, 0, -1, 0, 842)"/><path fill-rule="evenodd" fill="#330000" d="M 498.1 454.1 L 509 454.1 L 509 469.7 L 524.7 469.7 L 524.7 482.1 L 509 482.1 L 509 497.7 L 498.1 497.7 L 498.1 482.1 L 482.5 482.1 L 482.5 469.7 L 498.1 469.7 Z M 482.5 454.1 Z M 524.7 497.7 Z M 524.7 497.7 "/><path fill="none" stroke-width="5.66" stroke-linecap="butt" stroke-linejoin="round" stroke="#661900" d="M 498.1 387.9 L 509 387.9 L 509 372.3 L 524.7 372.3 L 524.7 359.9 L 509 359.9 L 509 344.3 L 498.1 344.3 L 498.1 359.9 L 482.5 359.9 L 482.5 372.3 L 498.1 372.3 Z M 498.1 387.9 " transform="matrix(1, 0, 0, -1, 0, 842)"/><path fill-rule="evenodd" fill="#009933" d="M 508 440.5 C 519.1 440.5 527.6 449 527.6 460.1 C 527.6 471.2 519.1 479.7 508 479.7 C 496.9 479.7 488.5 471.2 488.5 460.1 C 488.5 449 496.9 440.5 508 440.5 Z M 488.5 440.5 Z M 527.6 479.7 Z M 527.6 479.7 "/><path fill="none" stroke-width="5.66" stroke-linecap="butt" stroke-linejoin="round" stroke="#66FF00" d="M 508 401.5 C 519.1 401.5 527.6 393 527.6 381.9 C 527.6 370.8 519.1 362.3 508 362.3 C 496.9 362.3 488.5 370.8 488.5 381.9 C 488.5 393 496.9 401.5 508 401.5 Z M 508 401.5 " transform="matrix(1, 0, 0, -1, 0, 842)"/><path fill-rule="evenodd" fill="#00CC00" d="M 511.7 536.8 C 511.7 529.9 501 523 490.3 523 C 479.5 523 468.8 529.9 468.8 536.8 L 468.8 550.5 L 511.7 550.5 Z M 511.7 550.5 Z M 468.8 523 Z M 468.8 523 "/><path fill="none" stroke-width="5.66" stroke-linecap="butt" stroke-linejoin="round" stroke="#336600" d="M 511.7 305.2 C 511.7 312.1 501 319 490.3 319 C 479.5 319 468.8 312.1 468.8 305.2 L 468.8 291.5 L 511.7 291.5 Z M 511.7 305.2 " transform="matrix(1, 0, 0, -1, 0, 842)"/><path fill-rule="evenodd" fill="#009900" d="M 448.8 551.3 L 448.8 549.4 L 449 547.5 L 449.3 545.6 L 449.6 543.8 L 450.1 541.9 L 450.7 540.1 L 451.3 538.3 L 452.1 536.5 L 452.9 534.8 L 453.9 533.1 L 454.9 531.5 L 456.1 529.9 L 457.3 528.3 L 458.6 526.9 L 459.9 525.5 L 461.4 524.1 L 462.9 522.9 L 464.5 521.7 L 466.2 520.5 L 467.9 519.5 L 469.7 518.5 L 471.5 517.6 L 473.4 516.8 L 475.3 516.1 L 477.2 515.5 L 479.2 515 L 481.2 514.6 L 483.2 514.2 L 485.3 514 L 487.3 513.9 L 489.4 513.8 L 491.4 513.9 L 493.5 514 L 495.5 514.2 L 497.5 514.6 L 499.5 515 L 501.5 515.5 L 503.5 516.1 L 505.4 516.8 L 507.3 517.6 L 509.1 518.5 L 510.8 519.5 L 512.6 520.5 L 514.2 521.7 L 515.8 522.9 L 517.4 524.1 L 518.8 525.5 L 520.2 526.9 L 521.5 528.3 L 522.7 529.9 L 523.8 531.5 L 524.9 533.1 L 525.8 534.8 L 526.7 536.5 L 527.4 538.3 L 528.1 540.1 L 528.7 541.9 L 529.1 543.8 L 529.5 545.6 L 529.8 547.5 L 529.9 549.4 L 530 551.3 L 509.7 551.3 L 509.6 550.3 L 509.6 549.4 L 509.4 548.5 L 509.2 547.5 L 509 546.6 L 508.7 545.7 L 508.4 544.8 L 508 543.9 L 507.6 543 L 506.6 541.4 L 506 540.6 L 505.4 539.8 L 504.8 539.1 L 504.1 538.4 L 503.3 537.7 L 502.6 537.1 L 501 535.9 L 500.1 535.4 L 499.2 534.9 L 498.3 534.5 L 497.4 534.1 L 496.4 533.7 L 495.4 533.4 L 494.4 533.1 L 493.5 532.9 L 492.4 532.8 L 491.4 532.6 L 490.4 532.6 L 489.4 532.5 L 488.4 532.6 L 487.3 532.6 L 486.3 532.8 L 485.3 532.9 L 484.3 533.1 L 483.3 533.4 L 482.3 533.7 L 481.4 534.1 L 480.4 534.5 L 479.5 534.9 L 478.6 535.4 L 477.8 535.9 L 476.2 537.1 L 475.4 537.7 L 474.7 538.4 L 474 539.1 L 473.3 539.8 L 472.7 540.6 L 472.1 541.4 L 471.1 543 L 470.7 543.9 L 470.4 544.8 L 470 545.7 L 469.7 546.6 L 469.5 547.5 L 469.3 548.5 L 469.2 549.4 L 469.1 550.3 L 469.1 551.3 Z M 530 513.8 Z M 448.8 588.8 Z M 448.8 588.8 "/><path fill="none" stroke-width="5.66" stroke-linecap="butt" stroke-linejoin="round" stroke="#193300" d="M 448.8 290.7 L 448.8 292.6 L 449 294.5 L 449.3 296.4 L 449.6 298.2 L 450.1 300.1 L 450.7 301.9 L 451.3 303.7 L 452.1 305.5 L 452.9 307.2 L 453.9 308.9 L 454.9 310.5 L 456.1 312.1 L 457.3 313.7 L 458.6 315.1 L 459.9 316.5 L 461.4 317.9 L 462.9 319.1 L 464.5 320.3 L 466.2 321.5 L 467.9 322.5 L 469.7 323.5 L 471.5 324.4 L 473.4 325.2 L 475.3 325.9 L 477.2 326.5 L 479.2 327 L 481.2 327.4 L 483.2 327.8 L 485.3 328 L 487.3 328.1 L 489.4 328.2 L 491.4 328.1 L 493.5 328 L 495.5 327.8 L 497.5 327.4 L 499.5 327 L 501.5 326.5 L 503.5 325.9 L 505.4 325.2 L 507.3 324.4 L 509.1 323.5 L 510.8 322.5 L 512.6 321.5 L 514.2 320.3 L 515.8 319.1 L 517.4 317.9 L 518.8 316.5 L 520.2 315.1 L 521.5 313.7 L 522.7 312.1 L 523.8 310.5 L 524.9 308.9 L 525.8 307.2 L 526.7 305.5 L 527.4 303.7 L 528.1 301.9 L 528.7 300.1 L 529.1 298.2 L 529.5 296.4 L 529.8 294.5 L 529.9 292.6 L 530 290.7 L 509.7 290.7 L 509.6 291.7 L 509.6 292.6 L 509.4 293.5 L 509.2 294.5 L 509 295.4 L 508.7 296.3 L 508.4 297.2 L 508 298.1 L 507.6 299 L 506.6 300.6 L 506 301.4 L 505.4 302.2 L 504.8 302.9 L 504.1 303.6 L 503.3 304.3 L 502.6 304.9 L 501 306.1 L 500.1 306.6 L 499.2 307.1 L 498.3 307.5 L 497.4 307.9 L 496.4 308.3 L 495.4 308.6 L 494.4 308.9 L 493.5 309.1 L 492.4 309.2 L 491.4 309.4 L 490.4 309.4 L 489.4 309.5 L 488.4 309.4 L 487.3 309.4 L 486.3 309.2 L 485.3 309.1 L 484.3 308.9 L 483.3 308.6 L 482.3 308.3 L 481.4 307.9 L 480.4 307.5 L 479.5 307.1 L 478.6 306.6 L 477.8 306.1 L 476.2 304.9 L 475.4 304.3 L 474.7 303.6 L 474 302.9 L 473.3 302.2 L 472.7 301.4 L 472.1 300.6 L 471.1 299 L 470.7 298.1 L 470.4 297.2 L 470 296.3 L 469.7 295.4 L 469.5 294.5 L 469.3 293.5 L 469.2 292.6 L 469.1 291.7 L 469.1 290.7 Z M 448.8 290.7 " transform="matrix(1, 0, 0, -1, 0, 842)"/><path fill-rule="evenodd" fill="#003300" d="M 522.8 518.5 L 559.7 599.2 L 485.9 599.2 Z M 485.9 518.5 Z M 559.7 599.2 Z M 559.7 599.2 "/><path fill="none" stroke-width="5.66" stroke-linecap="butt" stroke-linejoin="round" stroke="#006600" d="M 522.8 323.5 L 559.7 242.8 L 485.9 242.8 Z M 522.8 323.5 " transform="matrix(1, 0, 0, -1, 0, 842)"/><path fill-rule="evenodd" fill="#330000" d="M 517.4 573.5 L 529.8 573.5 L 529.8 591.3 L 547.6 591.3 L 547.6 605.5 L 529.8 605.5 L 529.8 623.3 L 517.4 623.3 L 517.4 605.5 L 499.6 605.5 L 499.6 591.3 L 517.4 591.3 Z M 499.6 573.5 Z M 547.7 623.3 Z M 547.7 623.3 "/><path fill="none" stroke-width="5.66" stroke-linecap="butt" stroke-linejoin="round" stroke="#661900" d="M 517.4 268.5 L 529.8 268.5 L 529.8 250.7 L 547.6 250.7 L 547.6 236.5 L 529.8 236.5 L 529.8 218.7 L 517.4 218.7 L 517.4 236.5 L 499.6 236.5 L 499.6 250.7 L 517.4 250.7 Z M 517.4 268.5 " transform="matrix(1, 0, 0, -1, 0, 842)"/><path fill-rule="evenodd" fill="#006600" d="M 528.7 549.4 L 551.1 597.5 L 506.4 597.5 Z M 506.4 549.4 Z M 551.1 597.5 Z M 551.1 597.5 "/><path fill="none" stroke-width="5.66" stroke-linecap="butt" stroke-linejoin="round" stroke="#009900" d="M 528.7 292.6 L 551.1 244.5 L 506.4 244.5 Z M 528.7 292.6 " transform="matrix(1, 0, 0, -1, 0, 842)"/></svg>
