<svg xmlns="http://www.w3.org/2000/svg" width="132.8" height="204.9" viewBox="164.8 233.6 132.8 204.9"><defs><linearGradient id="linear-pattern-0" gradientUnits="userSpaceOnUse" x1="284" y1="643.3" x2="284" y2="0" gradientTransform="matrix(1, 0, 0, -1, 11.3, 654.8)"><stop offset="0" stop-color="#669900" stop-opacity="1"/><stop offset="0.02" stop-color="#669900" stop-opacity="1"/><stop offset="0.03" stop-color="#679801" stop-opacity="1"/><stop offset="0.05" stop-color="#689702" stop-opacity="1"/><stop offset="0.06" stop-color="#699603" stop-opacity="1"/><stop offset="0.08" stop-color="#6A9504" stop-opacity="1"/><stop offset="0.09" stop-color="#6A9504" stop-opacity="1"/><stop offset="0.11" stop-color="#6B9405" stop-opacity="1"/><stop offset="0.12" stop-color="#6C9306" stop-opacity="1"/><stop offset="0.14" stop-color="#6D9207" stop-opacity="1"/><stop offset="0.16" stop-color="#6E9108" stop-opacity="1"/><stop offset="0.17" stop-color="#6E9108" stop-opacity="1"/><stop offset="0.19" stop-color="#6F9009" stop-opacity="1"/><stop offset="0.2" stop-color="#708F0A" stop-opacity="1"/><stop offset="0.22" stop-color="#718E0B" stop-opacity="1"/><stop offset="0.23" stop-color="#728D0C" stop-opacity="1"/><stop offset="0.25" stop-color="#728D0C" stop-opacity="1"/><stop offset="0.27" stop-color="#738C0D" stop-opacity="1"/><stop offset="0.28" stop-color="#748B0E" stop-opacity="1"/><stop offset="0.3" stop-color="#758A0F" stop-opacity="1"/><stop offset="0.31" stop-color="#768910" stop-opacity="1"/><stop offset="0.33" stop-color="#768910" stop-opacity="1"/><stop offset="0.34" stop-color="#778811" stop-opacity="1"/><stop offset="0.36" stop-color="#788712" stop-opacity="1"/><stop offset="0.38" stop-color="#798613" stop-opacity="1"/><stop offset="0.39" stop-color="#7A8514" stop-opacity="1"/><stop offset="0.41" stop-color="#7A8514" stop-opacity="1"/><stop offset="0.42" stop-color="#7B8415" stop-opacity="1"/><stop offset="0.44" stop-color="#7C8316" stop-opacity="1"/><stop offset="0.45" stop-color="#7D8217" stop-opacity="1"/><stop offset="0.47" stop-color="#7E8118" stop-opacity="1"/><stop offset="0.48" stop-color="#7E8118" stop-opacity="1"/><stop offset="0.5" stop-color="#7F8019" stop-opacity="1"/><stop offset="0.52" stop-color="#807F1A" stop-opacity="1"/><stop offset="0.53" stop-color="#817E1B" stop-opacity="1"/><stop offset="0.55" stop-color="#827D1C" stop-opacity="1"/><stop offset="0.56" stop-color="#827D1C" stop-opacity="1"/><stop offset="0.58" stop-color="#837C1D" stop-opacity="1"/><stop offset="0.59" stop-color="#847B1E" stop-opacity="1"/><stop offset="0.61" stop-color="#857A1F" stop-opacity="1"/><stop offset="0.62" stop-color="#857A1F" stop-opacity="1"/><stop offset="0.64" stop-color="#867920" stop-opacity="1"/><stop offset="0.66" stop-color="#877821" stop-opacity="1"/><stop offset="0.67" stop-color="#887722" stop-opacity="1"/><stop offset="0.69" stop-color="#897623" stop-opacity="1"/><stop offset="0.7" stop-color="#897623" stop-opacity="1"/><stop offset="0.72" stop-color="#8A7524" stop-opacity="1"/><stop offset="0.73" stop-color="#8B7425" stop-opacity="1"/><stop offset="0.75" stop-color="#8C7326" stop-opacity="1"/><stop offset="0.77" stop-color="#8D7227" stop-opacity="1"/><stop offset="0.78" stop-color="#8D7227" stop-opacity="1"/><stop offset="0.8" stop-color="#8E7128" stop-opacity="1"/><stop offset="0.81" stop-color="#8F7029" stop-opacity="1"/><stop offset="0.83" stop-color="#906F2A" stop-opacity="1"/><stop offset="0.84" stop-color="#916E2B" stop-opacity="1"/><stop offset="0.86" stop-color="#916E2B" stop-opacity="1"/><stop offset="0.88" stop-color="#926D2C" stop-opacity="1"/><stop offset="0.89" stop-color="#936C2D" stop-opacity="1"/><stop offset="0.91" stop-color="#946B2E" stop-opacity="1"/><stop offset="0.92" stop-color="#956A2F" stop-opacity="1"/><stop offset="0.94" stop-color="#956A2F" stop-opacity="1"/><stop offset="0.95" stop-color="#966930" stop-opacity="1"/><stop offset="0.97" stop-color="#976831" stop-opacity="1"/><stop offset="0.98" stop-color="#986732" stop-opacity="1"/><stop offset="1" stop-color="#996633" stop-opacity="1"/>
</linearGradient></defs><path fill-rule="nonzero" fill="url(#linear-pattern-0)" d="M 11.3 654.8 L 11.3 11.5 L 578.3 11.5 L 578.3 654.8 Z M 11.3 654.8 "/><path fill-rule="evenodd" fill="#461900" d="M 206.8 295.5 C 200.7 295.5 195.7 297.6 195.7 300.1 L 195.7 327.8 C 195.7 330.3 200.7 332.4 206.8 332.4 C 212.8 332.4 217.9 330.3 217.9 327.8 L 217.9 300.1 C 217.9 297.6 212.8 295.5 206.8 295.5 Z M 195.7 295.5 Z M 217.9 332.4 Z M 217.9 332.4 "/><path fill="none" stroke-width="2.83" stroke-linecap="butt" stroke-linejoin="round" stroke="#801900" d="M 206.8 546.5 C 200.7 546.5 195.7 544.4 195.7 541.9 L 195.7 514.2 C 195.7 511.7 200.7 509.6 206.8 509.6 C 212.8 509.6 217.9 511.7 217.9 514.2 L 217.9 541.9 C 217.9 544.4 212.8 546.5 206.8 546.5 Z M 206.8 546.5 " transform="matrix(1, 0, 0, -1, 0, 842)"/><path fill-rule="evenodd" fill="#90583A" d="M 206.8 295.5 C 200.7 295.5 195.7 297.6 195.7 300.1 C 195.7 302.7 200.7 304.8 206.8 304.8 C 212.8 304.8 217.9 302.7 217.9 300.1 C 217.9 297.6 212.8 295.5 206.8 295.5 Z M 195.7 295.5 Z M 217.9 332.4 Z M 217.9 332.4 "/><path fill="none" stroke-width="2.83" stroke-linecap="butt" stroke-linejoin="round" stroke="#801900" d="M 206.8 546.5 C 200.7 546.5 195.7 544.4 195.7 541.9 C 195.7 539.3 200.7 537.2 206.8 537.2 C 212.8 537.2 217.9 539.3 217.9 541.9 C 217.9 544.4 212.8 546.5 206.8 546.5 Z M 206.8 546.5 " transform="matrix(1, 0, 0, -1, 0, 842)"/><path fill-rule="evenodd" fill="#461900" d="M 224 354.6 C 218 354.6 213 356.7 213 359.2 L 213 386.9 C 213 389.4 218 391.5 224 391.5 C 230.1 391.5 235.1 389.4 235.1 386.9 L 235.1 359.2 C 235.1 356.7 230.1 354.6 224 354.6 Z M 213 354.6 Z M 235.1 391.5 Z M 235.1 391.5 "/><path fill="none" stroke-width="2.83" stroke-linecap="butt" stroke-linejoin="round" stroke="#801900" d="M 224 487.4 C 218 487.4 213 485.3 213 482.8 L 213 455.1 C 213 452.6 218 450.5 224 450.5 C 230.1 450.5 235.1 452.6 235.1 455.1 L 235.1 482.8 C 235.1 485.3 230.1 487.4 224 487.4 Z M 224 487.4 " transform="matrix(1, 0, 0, -1, 0, 842)"/><path fill-rule="evenodd" fill="#90583A" d="M 224 354.6 C 218 354.6 213 356.7 213 359.2 C 213 361.7 218 363.8 224 363.8 C 230.1 363.8 235.1 361.7 235.1 359.2 C 235.1 356.7 230.1 354.6 224 354.6 Z M 213 354.6 Z M 235.1 391.5 Z M 235.1 391.5 "/><path fill="none" stroke-width="2.83" stroke-linecap="butt" stroke-linejoin="round" stroke="#801900" d="M 224 487.4 C 218 487.4 213 485.3 213 482.8 C 213 480.3 218 478.2 224 478.2 C 230.1 478.2 235.1 480.3 235.1 482.8 C 235.1 485.3 230.1 487.4 224 487.4 Z M 224 487.4 " transform="matrix(1, 0, 0, -1, 0, 842)"/><path fill-rule="evenodd" fill="#461900" d="M 267.1 374.3 C 259 374.3 252.3 376.4 252.3 378.9 L 252.3 406.6 C 252.3 409.1 259 411.2 267.1 411.2 C 275.1 411.2 281.8 409.1 281.8 406.6 L 281.8 378.9 C 281.8 376.4 275.1 374.3 267.1 374.3 Z M 252.3 374.3 Z M 281.8 411.2 Z M 281.8 411.2 "/><path fill="none" stroke-width="2.83" stroke-linecap="butt" stroke-linejoin="round" stroke="#801900" d="M 267.1 467.7 C 259 467.7 252.3 465.6 252.3 463.1 L 252.3 435.4 C 252.3 432.9 259 430.8 267.1 430.8 C 275.1 430.8 281.8 432.9 281.8 435.4 L 281.8 463.1 C 281.8 465.6 275.1 467.7 267.1 467.7 Z M 267.1 467.7 " transform="matrix(1, 0, 0, -1, 0, 842)"/><path fill-rule="evenodd" fill="#90583A" d="M 267.1 374.3 C 259 374.3 252.3 376.4 252.3 378.9 C 252.3 381.4 259 383.5 267.1 383.5 C 275.1 383.5 281.8 381.4 281.8 378.9 C 281.8 376.4 275.1 374.3 267.1 374.3 Z M 252.3 374.3 Z M 281.8 411.2 Z M 281.8 411.2 "/><path fill="none" stroke-width="2.83" stroke-linecap="butt" stroke-linejoin="round" stroke="#801900" d="M 267.1 467.7 C 259 467.7 252.3 465.6 252.3 463.1 C 252.3 460.6 259 458.5 267.1 458.5 C 275.1 458.5 281.8 460.6 281.8 463.1 C 281.8 465.6 275.1 467.7 267.1 467.7 Z M 267.1 467.7 " transform="matrix(1, 0, 0, -1, 0, 842)"/><path fill-rule="evenodd" fill="#333333" d="M 231.4 408.7 C 240.5 408.7 247.4 410.8 247.4 413.6 C 247.4 416.4 240.5 418.5 231.4 418.5 C 222.3 418.5 215.4 416.4 215.4 413.6 C 215.4 410.8 222.3 408.7 231.4 408.7 Z M 215.4 408.7 Z M 247.4 418.6 Z M 247.4 418.6 "/><path fill="none" stroke-width="2.83" stroke-linecap="butt" stroke-linejoin="round" stroke="#999966" d="M 231.4 433.3 C 240.5 433.3 247.4 431.2 247.4 428.4 C 247.4 425.6 240.5 423.5 231.4 423.5 C 222.3 423.5 215.4 425.6 215.4 428.4 C 215.4 431.2 222.3 433.3 231.4 433.3 Z M 231.4 433.3 " transform="matrix(1, 0, 0, -1, 0, 842)"/></svg>
